<svg xmlns="http://www.w3.org/2000/svg" width="713.482666015625" height="562.439208984375" viewBox="-268.9532470703125 -126.57852172851562 713.482666015625 562.439208984375"><title>Neo4j Graph Visualization</title><desc>Created using Neo4j (http://www.neo4j.com/)</desc><g class="layer relationships"><g class="relationship" transform="translate(415.5294484436483 89.82717515850126) rotate(477.17998642091766)"><path class="outline" fill="#A5ABB6" stroke="none" d="M 25 0.5 L 89.74638019013135 0.5 L 89.74638019013135 -0.5 L 25 -0.5 Z M 95.74638019013135 0.5 L 160.4927603802627 0.5 L 160.4927603802627 3.5 L 167.4927603802627 0 L 160.4927603802627 -3.5 L 160.4927603802627 -0.5 L 95.74638019013135 -0.5 Z"/><text text-anchor="middle" pointer-events="none" font-size="8px" fill="#000000" x="92.74638019013135" y="3" transform="rotate(180 92.74638019013135 0)" font-family="sans-serif">included_in</text></g><g class="relationship" transform="translate(415.5294484436483 89.82717515850126) rotate(214.2113815374804)"><path class="outline" fill="#A5ABB6" stroke="none" d="M 25 0.5 L 48.32118312258589 0.5 L 48.32118312258589 -0.5 L 25 -0.5 Z M 54.32118312258589 0.5 L 77.64236624517179 0.5 L 77.64236624517179 3.5 L 84.64236624517179 0 L 77.64236624517179 -3.5 L 77.64236624517179 -0.5 L 54.32118312258589 -0.5 Z"/><text text-anchor="middle" pointer-events="none" font-size="8px" fill="#000000" x="51.32118312258589" y="3" transform="rotate(180 51.32118312258589 0)" font-family="sans-serif">included_in</text></g><g class="relationship" transform="translate(-227.0313499991217 332.5439929368622) rotate(290.9442285819394)"><path class="outline" fill="#A5ABB6" stroke="none" d="M 25 0.5 L 41.20140818828165 0.5 L 41.20140818828165 -0.5 L 25 -0.5 Z M 47.20140818828165 0.5 L 63.402816376563294 0.5 L 63.402816376563294 3.5 L 70.4028163765633 0 L 63.402816376563294 -3.5 L 63.402816376563294 -0.5 L 47.20140818828165 -0.5 Z"/><text text-anchor="middle" pointer-events="none" font-size="8px" fill="#000000" x="44.20140818828165" y="3" font-family="sans-serif">included_in</text></g><g class="relationship" transform="translate(404.2626051965755 213.55121004454682) rotate(508.21035218575526)"><path class="outline" fill="#A5ABB6" stroke="none" d="M 25 0.5 L 38.5955779917832 0.5 L 38.5955779917832 -0.5 L 25 -0.5 Z M 44.5955779917832 0.5 L 58.191155983566404 0.5 L 58.191155983566404 3.5 L 65.1911559835664 0 L 58.191155983566404 -3.5 L 58.191155983566404 -0.5 L 44.5955779917832 -0.5 Z"/><text text-anchor="middle" pointer-events="none" font-size="8px" fill="#000000" x="41.5955779917832" y="3" transform="rotate(180 41.5955779917832 0)" font-family="sans-serif">included_in</text></g><g class="relationship" transform="translate(277.5866097335927 353.02226299951377) rotate(298.5410802495633)"><path class="outline" fill="#A5ABB6" stroke="none" d="M 25 0.5 L 45.83966531698345 0.5 L 45.83966531698345 -0.5 L 25 -0.5 Z M 51.83966531698345 0.5 L 72.6793306339669 0.5 L 72.6793306339669 3.5 L 79.6793306339669 0 L 72.6793306339669 -3.5 L 72.6793306339669 -0.5 L 51.83966531698345 -0.5 Z"/><text text-anchor="middle" pointer-events="none" font-size="8px" fill="#000000" x="48.83966531698345" y="3" font-family="sans-serif">included_in</text></g><g class="relationship" transform="translate(-137.97610134937943 343.74000555023656) rotate(241.28132625520516)"><path class="outline" fill="#A5ABB6" stroke="none" d="M 25 0.5 L 50.681665391221976 0.5 L 50.681665391221976 -0.5 L 25 -0.5 Z M 56.681665391221976 0.5 L 82.36333078244395 0.5 L 82.36333078244395 3.5 L 89.36333078244395 0 L 82.36333078244395 -3.5 L 82.36333078244395 -0.5 L 56.681665391221976 -0.5 Z"/><text text-anchor="middle" pointer-events="none" font-size="8px" fill="#000000" x="53.681665391221976" y="3" transform="rotate(180 53.681665391221976 0)" font-family="sans-serif">included_in</text></g><g class="relationship" transform="translate(-225.1931244089082 147.88941669116022) rotate(431.34264843472596)"><path class="outline" fill="#A5ABB6" stroke="none" d="M 25 0.5 L 43.92760638843088 0.5 L 43.92760638843088 -0.5 L 25 -0.5 Z M 49.92760638843088 0.5 L 68.85521277686176 0.5 L 68.85521277686176 3.5 L 75.85521277686176 0 L 68.85521277686176 -3.5 L 68.85521277686176 -0.5 L 49.92760638843088 -0.5 Z"/><text text-anchor="middle" pointer-events="none" font-size="8px" fill="#000000" x="46.92760638843088" y="3" font-family="sans-serif">included_in</text></g><g class="relationship" transform="translate(63.24631840418597 103.1314780156313) rotate(448.99501774997236)"><path class="outline" fill="#A5ABB6" stroke="none" d="M 25 0.5 L 145.3879464118513 0.5 L 145.3879464118513 -0.5 L 25 -0.5 Z M 151.3879464118513 0.5 L 271.7758928237026 0.5 L 271.7758928237026 3.5 L 278.7758928237026 0 L 271.7758928237026 -3.5 L 271.7758928237026 -0.5 L 151.3879464118513 -0.5 Z"/><text text-anchor="middle" pointer-events="none" font-size="8px" fill="#000000" x="148.3879464118513" y="3" font-family="sans-serif">included_in</text></g><g class="relationship" transform="translate(-77.80591191390334 153.6088342600744) rotate(419.9719661368407)"><path class="outline" fill="#A5ABB6" stroke="none" d="M 25 0.5 L 139.7563325862449 0.5 L 139.7563325862449 -0.5 L 25 -0.5 Z M 145.7563325862449 0.5 L 260.5126651724898 0.5 L 260.5126651724898 3.5 L 267.5126651724898 0 L 260.5126651724898 -3.5 L 260.5126651724898 -0.5 L 145.7563325862449 -0.5 Z"/><text text-anchor="middle" pointer-events="none" font-size="8px" fill="#000000" x="142.7563325862449" y="3" font-family="sans-serif">included_in</text></g><g class="relationship" transform="translate(151.23199674365674 83.47039873477752) rotate(527.4037522683448)"><path class="outline" fill="#A5ABB6" stroke="none" d="M 25 0.5 L 38.57781502952653 0.5 L 38.57781502952653 -0.5 L 25 -0.5 Z M 44.57781502952653 0.5 L 58.15563005905307 0.5 L 58.15563005905307 3.5 L 65.15563005905307 0 L 58.15563005905307 -3.5 L 58.15563005905307 -0.5 L 44.57781502952653 -0.5 Z"/><text text-anchor="middle" pointer-events="none" font-size="8px" fill="#000000" x="41.57781502952653" y="3" transform="rotate(180 41.57781502952653 0)" font-family="sans-serif">included_in</text></g><g class="relationship" transform="translate(291.3426324796823 -97.57852291704927) rotate(416.4690380491105)"><path class="outline" fill="#A5ABB6" stroke="none" d="M 25 0.5 L 105.90914212204045 0.5 L 105.90914212204045 -0.5 L 25 -0.5 Z M 111.90914212204045 0.5 L 192.8182842440809 0.5 L 192.8182842440809 3.5 L 199.8182842440809 0 L 192.8182842440809 -3.5 L 192.8182842440809 -0.5 L 111.90914212204045 -0.5 Z"/><text text-anchor="middle" pointer-events="none" font-size="8px" fill="#000000" x="108.90914212204045" y="3" font-family="sans-serif">DTI_source</text></g><g class="relationship" transform="translate(291.3426324796823 -97.57852291704927) rotate(500.62803576475443)"><path class="outline" fill="#A5ABB6" stroke="none" d="M 25 0.5 L 66.36395269025844 0.5 L 66.36395269025844 -0.5 L 25 -0.5 Z M 72.36395269025844 0.5 L 113.72790538051689 0.5 L 113.72790538051689 3.5 L 120.72790538051689 0 L 113.72790538051689 -3.5 L 113.72790538051689 -0.5 L 72.36395269025844 -0.5 Z"/><text text-anchor="middle" pointer-events="none" font-size="8px" fill="#000000" x="69.36395269025844" y="3" transform="rotate(180 69.36395269025844 0)" font-family="sans-serif">DTI_source</text></g><g class="relationship" transform="translate(-38.322927109910154 -51.0873286472152) rotate(372.31234212789496)"><path class="outline" fill="#A5ABB6" stroke="none" d="M 25 0.5 L 179.36574903849353 0.5 L 179.36574903849353 -0.5 L 25 -0.5 Z M 185.36574903849353 0.5 L 339.73149807698707 0.5 L 339.73149807698707 3.5 L 346.73149807698707 0 L 339.73149807698707 -3.5 L 339.73149807698707 -0.5 L 185.36574903849353 -0.5 Z"/><text text-anchor="middle" pointer-events="none" font-size="8px" fill="#000000" x="182.36574903849353" y="3" font-family="sans-serif">DTI_source</text></g><g class="relationship" transform="translate(-38.322927109910154 -51.0873286472152) rotate(481.2534537721012)"><path class="outline" fill="#A5ABB6" stroke="none" d="M 25 0.5 L 107.58872839131527 0.5 L 107.58872839131527 -0.5 L 25 -0.5 Z M 113.58872839131527 0.5 L 196.17745678263054 0.5 L 196.17745678263054 3.5 L 203.17745678263054 0 L 196.17745678263054 -3.5 L 196.17745678263054 -0.5 L 113.58872839131527 -0.5 Z"/><text text-anchor="middle" pointer-events="none" font-size="8px" fill="#000000" x="110.58872839131527" y="3" transform="rotate(180 110.58872839131527 0)" font-family="sans-serif">DTI_source</text></g><g class="relationship" transform="translate(186.6022912615104 153.87225983823743) rotate(397.24324819422685)"><path class="outline" fill="#A5ABB6" stroke="none" d="M 25 0.5 L 82.05900523768237 0.5 L 82.05900523768237 -0.5 L 25 -0.5 Z M 88.05900523768237 0.5 L 145.11801047536474 0.5 L 145.11801047536474 3.5 L 152.11801047536474 0 L 145.11801047536474 -3.5 L 145.11801047536474 -0.5 L 88.05900523768237 -0.5 Z"/><text text-anchor="middle" pointer-events="none" font-size="8px" fill="#000000" x="85.05900523768237" y="3" font-family="sans-serif">DTI_source</text></g><g class="relationship" transform="translate(186.6022912615104 153.87225983823743) rotate(202.35914142657072)"><path class="outline" fill="#A5ABB6" stroke="none" d="M 25 0.5 L 60.192059084171106 0.5 L 60.192059084171106 -0.5 L 25 -0.5 Z M 66.1920590841711 0.5 L 101.38411816834221 0.5 L 101.38411816834221 3.5 L 108.38411816834221 0 L 101.38411816834221 -3.5 L 101.38411816834221 -0.5 L 66.1920590841711 -0.5 Z"/><text text-anchor="middle" pointer-events="none" font-size="8px" fill="#000000" x="63.192059084171106" y="3" transform="rotate(180 63.192059084171106 0)" font-family="sans-serif">DTI_source</text></g><g class="relationship" transform="translate(186.6022912615104 153.87225983823743) rotate(526.7207393306788)"><path class="outline" fill="#A5ABB6" stroke="none" d="M 25 0.5 L 188.47885005938645 0.5 L 188.47885005938645 -0.5 L 25 -0.5 Z M 194.47885005938645 0.5 L 357.9577001187729 0.5 L 357.9577001187729 3.5 L 364.9577001187729 0 L 357.9577001187729 -3.5 L 357.9577001187729 -0.5 L 194.47885005938645 -0.5 Z"/><text text-anchor="middle" pointer-events="none" font-size="8px" fill="#000000" x="191.47885005938645" y="3" transform="rotate(180 191.47885005938645 0)" font-family="sans-serif">DTI_source</text></g><g class="relationship" transform="translate(186.6022912615104 153.87225983823743) rotate(317.7254768845272)"><path class="outline" fill="#A5ABB6" stroke="none" d="M 25 0.5 L 86.9252412047052 0.5 L 86.9252412047052 -0.5 L 25 -0.5 Z M 92.9252412047052 0.5 L 154.8504824094104 0.5 L 154.8504824094104 3.5 L 161.8504824094104 0 L 154.8504824094104 -3.5 L 154.8504824094104 -0.5 L 92.9252412047052 -0.5 Z"/><text text-anchor="middle" pointer-events="none" font-size="8px" fill="#000000" x="89.9252412047052" y="3" font-family="sans-serif">DTI_source</text></g><g class="relationship" transform="translate(186.6022912615104 153.87225983823743) rotate(446.3569171185351)"><path class="outline" fill="#A5ABB6" stroke="none" d="M 25 0.5 L 60.518988092874054 0.5 L 60.518988092874054 -0.5 L 25 -0.5 Z M 66.51898809287405 0.5 L 102.03797618574811 0.5 L 102.03797618574811 3.5 L 109.03797618574811 0 L 102.03797618574811 -3.5 L 102.03797618574811 -0.5 L 66.51898809287405 -0.5 Z"/><text text-anchor="middle" pointer-events="none" font-size="8px" fill="#000000" x="63.518988092874054" y="3" font-family="sans-serif">DTI_source</text></g><g class="relationship" transform="translate(186.6022912615104 153.87225983823743) rotate(267.15076682524)"><path class="outline" fill="#A5ABB6" stroke="none" d="M 25 0.5 L 73.10237852916039 0.5 L 73.10237852916039 -0.5 L 25 -0.5 Z M 79.10237852916039 0.5 L 127.20475705832078 0.5 L 127.20475705832078 3.5 L 134.20475705832078 0 L 127.20475705832078 -3.5 L 127.20475705832078 -0.5 L 79.10237852916039 -0.5 Z"/><text text-anchor="middle" pointer-events="none" font-size="8px" fill="#000000" x="76.10237852916039" y="3" transform="rotate(180 76.10237852916039 0)" font-family="sans-serif">DTI_source</text></g><g class="relationship" transform="translate(186.6022912615104 153.87225983823743) rotate(477.9287190786563)"><path class="outline" fill="#A5ABB6" stroke="none" d="M 25 0.5 L 66.3897790389591 0.5 L 66.3897790389591 -0.5 L 25 -0.5 Z M 72.3897790389591 0.5 L 113.77955807791821 0.5 L 113.77955807791821 3.5 L 120.77955807791821 0 L 113.77955807791821 -3.5 L 113.77955807791821 -0.5 L 72.3897790389591 -0.5 Z"/><text text-anchor="middle" pointer-events="none" font-size="8px" fill="#000000" x="69.3897790389591" y="3" transform="rotate(180 69.3897790389591 0)" font-family="sans-serif">DTI_source</text></g><g class="relationship" transform="translate(186.6022912615104 153.87225983823743) rotate(519.6351093632152)"><path class="outline" fill="#A5ABB6" stroke="none" d="M 25 0.5 L 85.0857738532135 0.5 L 85.0857738532135 -0.5 L 25 -0.5 Z M 91.0857738532135 0.5 L 151.171547706427 0.5 L 151.171547706427 3.5 L 158.171547706427 0 L 151.171547706427 -3.5 L 151.171547706427 -0.5 L 91.0857738532135 -0.5 Z"/><text text-anchor="middle" pointer-events="none" font-size="8px" fill="#000000" x="88.0857738532135" y="3" transform="rotate(180 88.0857738532135 0)" font-family="sans-serif">DTI_source</text></g><g class="relationship" transform="translate(186.6022912615104 153.87225983823743) rotate(362.1636382751045)"><path class="outline" fill="#A5ABB6" stroke="none" d="M 25 0.5 L 35.32645722587866 0.5 L 35.32645722587866 -0.5 L 25 -0.5 Z M 41.32645722587866 0.5 L 51.652914451757326 0.5 L 51.652914451757326 3.5 L 58.652914451757326 0 L 51.652914451757326 -3.5 L 51.652914451757326 -0.5 L 41.32645722587866 -0.5 Z"/><text text-anchor="middle" pointer-events="none" font-size="8px" fill="#000000" x="38.32645722587866" y="3" font-family="sans-serif">DTI_source</text></g><g class="relationship" transform="translate(186.6022912615104 153.87225983823743) rotate(181.65096294822223)"><path class="outline" fill="#A5ABB6" stroke="none" d="M 25 0.5 L 165.22595602460783 0.5 L 165.22595602460783 -0.5 L 25 -0.5 Z M 171.22595602460783 0.5 L 311.45191204921565 0.5 L 311.45191204921565 3.5 L 318.45191204921565 0 L 311.45191204921565 -3.5 L 311.45191204921565 -0.5 L 171.22595602460783 -0.5 Z"/><text text-anchor="middle" pointer-events="none" font-size="8px" fill="#000000" x="168.22595602460783" y="3" transform="rotate(180 168.22595602460783 0)" font-family="sans-serif">DTI_source</text></g><g class="relationship" transform="translate(-162.4960796582295 29.72093857995793) rotate(415.64336166460527)"><path class="outline" fill="#A5ABB6" stroke="none" d="M 25 0.5 L 68.53438413255871 0.5 L 68.53438413255871 -0.5 L 25 -0.5 Z M 74.53438413255871 0.5 L 118.06876826511743 0.5 L 118.06876826511743 3.5 L 125.06876826511743 0 L 118.06876826511743 -3.5 L 118.06876826511743 -0.5 L 74.53438413255871 -0.5 Z"/><text text-anchor="middle" pointer-events="none" font-size="8px" fill="#000000" x="71.53438413255871" y="3" font-family="sans-serif">DTI_source</text></g><g class="relationship" transform="translate(-162.4960796582295 29.72093857995793) rotate(447.0994692389926)"><path class="outline" fill="#A5ABB6" stroke="none" d="M 25 0.5 L 50.70138805361891 0.5 L 50.70138805361891 -0.5 L 25 -0.5 Z M 56.70138805361891 0.5 L 82.40277610723783 0.5 L 82.40277610723783 3.5 L 89.40277610723783 0 L 82.40277610723783 -3.5 L 82.40277610723783 -0.5 L 56.70138805361891 -0.5 Z"/><text text-anchor="middle" pointer-events="none" font-size="8px" fill="#000000" x="53.70138805361891" y="3" font-family="sans-serif">DTI_source</text></g><g class="relationship" transform="translate(-22.942457196867792 17.559148898098044) rotate(471.9622703811174)"><path class="outline" fill="#A5ABB6" stroke="none" d="M 25 0.5 L 66.84765768342737 0.5 L 66.84765768342737 -0.5 L 25 -0.5 Z M 72.84765768342737 0.5 L 114.69531536685474 0.5 L 114.69531536685474 3.5 L 121.69531536685474 0 L 114.69531536685474 -3.5 L 114.69531536685474 -0.5 L 72.84765768342737 -0.5 Z"/><text text-anchor="middle" pointer-events="none" font-size="8px" fill="#000000" x="69.84765768342737" y="3" transform="rotate(180 69.84765768342737 0)" font-family="sans-serif">DTI_source</text></g><g class="relationship" transform="translate(-22.942457196867792 17.559148898098044) rotate(404.79436770500496)"><path class="outline" fill="#A5ABB6" stroke="none" d="M 25 0.5 L 54.22711204686139 0.5 L 54.22711204686139 -0.5 L 25 -0.5 Z M 60.22711204686139 0.5 L 89.45422409372279 0.5 L 89.45422409372279 3.5 L 96.45422409372279 0 L 89.45422409372279 -3.5 L 89.45422409372279 -0.5 L 60.22711204686139 -0.5 Z"/><text text-anchor="middle" pointer-events="none" font-size="8px" fill="#000000" x="57.22711204686139" y="3" font-family="sans-serif">DTI_source</text></g><g class="relationship" transform="translate(-22.942457196867792 17.559148898098044) rotate(353.57802868120007)"><path class="outline" fill="#A5ABB6" stroke="none" d="M 25 0.5 L 94.9521003500797 0.5 L 94.9521003500797 -0.5 L 25 -0.5 Z M 100.9521003500797 0.5 L 170.9042007001594 0.5 L 170.9042007001594 3.5 L 177.9042007001594 0 L 170.9042007001594 -3.5 L 170.9042007001594 -0.5 L 100.9521003500797 -0.5 Z"/><text text-anchor="middle" pointer-events="none" font-size="8px" fill="#000000" x="97.9521003500797" y="3" font-family="sans-serif">DTI_source</text></g><g class="relationship" transform="translate(-22.942457196867792 17.559148898098044) rotate(439.2941326738295)"><path class="outline" fill="#A5ABB6" stroke="none" d="M 25 0.5 L 95.30014449715864 0.5 L 95.30014449715864 -0.5 L 25 -0.5 Z M 101.30014449715864 0.5 L 171.60028899431728 0.5 L 171.60028899431728 3.5 L 178.60028899431728 0 L 171.60028899431728 -3.5 L 171.60028899431728 -0.5 L 101.30014449715864 -0.5 Z"/><text text-anchor="middle" pointer-events="none" font-size="8px" fill="#000000" x="98.30014449715864" y="3" font-family="sans-serif">DTI_source</text></g><g class="relationship" transform="translate(-22.942457196867792 17.559148898098044) rotate(496.61738983293725)"><path class="outline" fill="#A5ABB6" stroke="none" d="M 25 0.5 L 85.52510170231561 0.5 L 85.52510170231561 -0.5 L 25 -0.5 Z M 91.52510170231561 0.5 L 152.05020340463122 0.5 L 152.05020340463122 3.5 L 159.05020340463122 0 L 152.05020340463122 -3.5 L 152.05020340463122 -0.5 L 91.52510170231561 -0.5 Z"/><text text-anchor="middle" pointer-events="none" font-size="8px" fill="#000000" x="88.52510170231561" y="3" transform="rotate(180 88.52510170231561 0)" font-family="sans-serif">DTI_source</text></g><g class="relationship" transform="translate(14.879806155766815 217.6155261357494) rotate(434.1597622315454)"><path class="outline" fill="#A5ABB6" stroke="none" d="M 25 0.5 L 91.85753399610553 0.5 L 91.85753399610553 -0.5 L 25 -0.5 Z M 97.85753399610553 0.5 L 164.71506799221106 0.5 L 164.71506799221106 3.5 L 171.71506799221106 0 L 164.71506799221106 -3.5 L 164.71506799221106 -0.5 L 97.85753399610553 -0.5 Z"/><text text-anchor="middle" pointer-events="none" font-size="8px" fill="#000000" x="94.85753399610553" y="3" font-family="sans-serif">included_in</text></g><g class="relationship" transform="translate(14.879806155766815 217.6155261357494) rotate(367.90986914940925)"><path class="outline" fill="#A5ABB6" stroke="none" d="M 25 0.5 L 151.3626452741642 0.5 L 151.3626452741642 -0.5 L 25 -0.5 Z M 157.3626452741642 0.5 L 283.7252905483284 0.5 L 283.7252905483284 3.5 L 290.7252905483284 0 L 283.7252905483284 -3.5 L 283.7252905483284 -0.5 L 157.3626452741642 -0.5 Z"/><text text-anchor="middle" pointer-events="none" font-size="8px" fill="#000000" x="154.3626452741642" y="3" font-family="sans-serif">included_in</text></g><g class="relationship" transform="translate(14.879806155766815 217.6155261357494) rotate(532.9149050754248)"><path class="outline" fill="#A5ABB6" stroke="none" d="M 25 0.5 L 98.20379065744693 0.5 L 98.20379065744693 -0.5 L 25 -0.5 Z M 104.20379065744693 0.5 L 177.40758131489386 0.5 L 177.40758131489386 3.5 L 184.40758131489386 0 L 177.40758131489386 -3.5 L 177.40758131489386 -0.5 L 104.20379065744693 -0.5 Z"/><text text-anchor="middle" pointer-events="none" font-size="8px" fill="#000000" x="101.20379065744693" y="3" transform="rotate(180 101.20379065744693 0)" font-family="sans-serif">included_in</text></g><g class="relationship" transform="translate(-156.70704844624657 143.97715197191957) rotate(409.4046496977926)"><path class="outline" fill="#A5ABB6" stroke="none" d="M 25 0.5 L 166.60360908298978 0.5 L 166.60360908298978 -0.5 L 25 -0.5 Z M 172.60360908298978 0.5 L 314.20721816597955 0.5 L 314.20721816597955 3.5 L 321.20721816597955 0 L 314.20721816597955 -3.5 L 314.20721816597955 -0.5 L 172.60360908298978 -0.5 Z"/><text text-anchor="middle" pointer-events="none" font-size="8px" fill="#000000" x="169.60360908298978" y="3" font-family="sans-serif">included_in</text></g><g class="relationship" transform="translate(-156.70704844624657 143.97715197191957) rotate(470.0094242043199)"><path class="outline" fill="#A5ABB6" stroke="none" d="M 25 0.5 L 46.42866826093769 0.5 L 46.42866826093769 -0.5 L 25 -0.5 Z M 52.42866826093769 0.5 L 73.85733652187538 0.5 L 73.85733652187538 3.5 L 80.85733652187538 0 L 73.85733652187538 -3.5 L 73.85733652187538 -0.5 L 52.42866826093769 -0.5 Z"/><text text-anchor="middle" pointer-events="none" font-size="8px" fill="#000000" x="49.42866826093769" y="3" transform="rotate(180 49.42866826093769 0)" font-family="sans-serif">included_in</text></g><g class="relationship" transform="translate(270.1955676519553 157.03046163415215) rotate(421.1101372008185)"><path class="outline" fill="#A5ABB6" stroke="none" d="M 25 0.5 L 52.91045519219718 0.5 L 52.91045519219718 -0.5 L 25 -0.5 Z M 58.91045519219718 0.5 L 86.82091038439437 0.5 L 86.82091038439437 3.5 L 93.82091038439437 0 L 86.82091038439437 -3.5 L 86.82091038439437 -0.5 L 58.91045519219718 -0.5 Z"/><text text-anchor="middle" pointer-events="none" font-size="8px" fill="#000000" x="55.91045519219718" y="3" font-family="sans-serif">included_in</text></g><g class="relationship" transform="translate(327.60121488472055 261.0641120092283) rotate(510.6264677112961)"><path class="outline" fill="#A5ABB6" stroke="none" d="M 25 0.5 L 142.11993885876888 0.5 L 142.11993885876888 -0.5 L 25 -0.5 Z M 148.11993885876888 0.5 L 265.23987771753775 0.5 L 265.23987771753775 3.5 L 272.23987771753775 0 L 265.23987771753775 -3.5 L 265.23987771753775 -0.5 L 148.11993885876888 -0.5 Z"/><text text-anchor="middle" pointer-events="none" font-size="8px" fill="#000000" x="145.11993885876888" y="3" transform="rotate(180 145.11993885876888 0)" font-family="sans-serif">included_in</text></g><g class="relationship" transform="translate(118.32312074262788 282.67301459785244) rotate(471.8307238733661)"><path class="outline" fill="#A5ABB6" stroke="none" d="M 25 0.5 L 60.390782287627644 0.5 L 60.390782287627644 -0.5 L 25 -0.5 Z M 66.39078228762764 0.5 L 101.78156457525529 0.5 L 101.78156457525529 3.5 L 108.78156457525529 0 L 101.78156457525529 -3.5 L 101.78156457525529 -0.5 L 66.39078228762764 -0.5 Z"/><text text-anchor="middle" pointer-events="none" font-size="8px" fill="#000000" x="63.390782287627644" y="3" transform="rotate(180 63.390782287627644 0)" font-family="sans-serif">included_in</text></g><g class="relationship" transform="translate(178.6885401162067 -5.135687173253615) rotate(372.84012677853923)"><path class="outline" fill="#A5ABB6" stroke="none" d="M 24.018736134675446,-6.953439040707552 L 24.277555179777966,-5.987513214418485 A 190.67841986724704 190.67841986724704 0 0 1 68.43248940541238,-12.413906566619687 L 68.40523790873185,-13.413535175618392 A 191.67841986724704 191.67841986724704 0 0 0 24.018736134675446,-6.953439040707552 Z M 74.4202810542404,-13.483088553917952 L 74.41615164142851,-12.483097079979387 A 190.67841986724704 190.67841986724704 0 0 1 118.70787963561862,-7.0794335749123505 L 117.99863653508014,-4.164476589922941 L 125.62765311735032,-5.910359171154103 L 119.65353710300327,-10.966042888231563 L 118.94429400246479,-8.051085903242154 A 191.67841986724704 191.67841986724704 0 0 0 74.4202810542404,-13.483088553917952"/><text text-anchor="middle" pointer-events="none" font-size="8px" fill="#000000" x="71.41826784816368" y="-9.971943009124146" font-family="sans-serif">included_in</text></g><g class="relationship" transform="translate(178.6885401162067 -5.135687173253615) rotate(508.24661802928944)"><path class="outline" fill="#A5ABB6" stroke="none" d="M 25 0.5 L 144.32210299498774 0.5 L 144.32210299498774 -0.5 L 25 -0.5 Z M 150.32210299498774 0.5 L 269.6442059899755 0.5 L 269.6442059899755 3.5 L 276.6442059899755 0 L 269.6442059899755 -3.5 L 269.6442059899755 -0.5 L 150.32210299498774 -0.5 Z"/><text text-anchor="middle" pointer-events="none" font-size="8px" fill="#000000" x="147.32210299498774" y="3" transform="rotate(180 147.32210299498774 0)" font-family="sans-serif">included_in</text></g><g class="relationship" transform="translate(178.6885401162067 -5.135687173253615) rotate(496.83702429719716)"><path class="outline" fill="#A5ABB6" stroke="none" d="M 25 0.5 L 72.63388277445485 0.5 L 72.63388277445485 -0.5 L 25 -0.5 Z M 78.63388277445485 0.5 L 126.2677655489097 0.5 L 126.2677655489097 3.5 L 133.2677655489097 0 L 126.2677655489097 -3.5 L 126.2677655489097 -0.5 L 78.63388277445485 -0.5 Z"/><text text-anchor="middle" pointer-events="none" font-size="8px" fill="#000000" x="75.63388277445485" y="3" transform="rotate(180 75.63388277445485 0)" font-family="sans-serif">included_in</text></g><g class="relationship" transform="translate(-192.9287510813042 243.44455343452455) rotate(392.0017041997496)"><path class="outline" fill="#A5ABB6" stroke="none" d="M 25 0.5 L 147.68227033917532 0.5 L 147.68227033917532 -0.5 L 25 -0.5 Z M 153.68227033917532 0.5 L 276.36454067835064 0.5 L 276.36454067835064 3.5 L 283.36454067835064 0 L 276.36454067835064 -3.5 L 276.36454067835064 -0.5 L 153.68227033917532 -0.5 Z"/><text text-anchor="middle" pointer-events="none" font-size="8px" fill="#000000" x="150.68227033917532" y="3" font-family="sans-serif">included_in</text></g><g class="relationship" transform="translate(195.11919241697365 287.6393763305923) rotate(496.70685004335536)"><path class="outline" fill="#A5ABB6" stroke="none" d="M 25 0.5 L 80.430011146163 0.5 L 80.430011146163 -0.5 L 25 -0.5 Z M 86.430011146163 0.5 L 141.860022292326 0.5 L 141.860022292326 3.5 L 148.860022292326 0 L 141.860022292326 -3.5 L 141.860022292326 -0.5 L 86.430011146163 -0.5 Z"/><text text-anchor="middle" pointer-events="none" font-size="8px" fill="#000000" x="83.430011146163" y="3" transform="rotate(180 83.430011146163 0)" font-family="sans-serif">included_in</text></g><g class="relationship" transform="translate(195.11919241697365 287.6393763305923) rotate(234.44556370651577)"><path class="outline" fill="#A5ABB6" stroke="none" d="M 25 0.5 L 106.89490667683951 0.5 L 106.89490667683951 -0.5 L 25 -0.5 Z M 112.89490667683951 0.5 L 194.78981335367902 0.5 L 194.78981335367902 3.5 L 201.78981335367902 0 L 194.78981335367902 -3.5 L 194.78981335367902 -0.5 L 112.89490667683951 -0.5 Z"/><text text-anchor="middle" pointer-events="none" font-size="8px" fill="#000000" x="109.89490667683951" y="3" transform="rotate(180 109.89490667683951 0)" font-family="sans-serif">included_in</text></g><g class="relationship" transform="translate(324.85862113670544 28.181011033594565) rotate(192.84012677853923)"><path class="outline" fill="#A5ABB6" stroke="none" d="M 24.018736134675446,-6.953439040707552 L 24.277555179777966,-5.987513214418485 A 190.67841986724704 190.67841986724704 0 0 1 68.43248940541238,-12.413906566619687 L 68.40523790873185,-13.413535175618392 A 191.67841986724704 191.67841986724704 0 0 0 24.018736134675446,-6.953439040707552 Z M 74.4202810542404,-13.483088553917952 L 74.41615164142851,-12.483097079979387 A 190.67841986724704 190.67841986724704 0 0 1 118.70787963561862,-7.0794335749123505 L 117.99863653508014,-4.164476589922941 L 125.62765311735032,-5.910359171154103 L 119.65353710300327,-10.966042888231563 L 118.94429400246479,-8.051085903242154 A 191.67841986724704 191.67841986724704 0 0 0 74.4202810542404,-13.483088553917952"/><text text-anchor="middle" pointer-events="none" font-size="8px" fill="#000000" x="71.41826784816368" y="-9.971943009124146" transform="rotate(180 71.41826784816368 -12.971943009124146)" font-family="sans-serif">included_in</text></g><g class="relationship" transform="translate(324.85862113670544 28.181011033594565) rotate(449.3252761490332)"><path class="outline" fill="#A5ABB6" stroke="none" d="M 25 0.5 L 109.94962488184953 0.5 L 109.94962488184953 -0.5 L 25 -0.5 Z M 115.94962488184953 0.5 L 200.89924976369906 0.5 L 200.89924976369906 3.5 L 207.89924976369906 0 L 200.89924976369906 -3.5 L 200.89924976369906 -0.5 L 115.94962488184953 -0.5 Z"/><text text-anchor="middle" pointer-events="none" font-size="8px" fill="#000000" x="112.94962488184953" y="3" font-family="sans-serif">included_in</text></g></g><g class="layer nodes"><g class="node" transform="translate(415.5294484436483,89.82717515850126)"><circle class="outline" cx="0" cy="0" r="25" fill="#F79767" stroke="#f36924" stroke-width="2px"/><text text-anchor="middle" pointer-events="none" font-family="sans-serif" dy="1.5625" font-size="25" fill="#FFFFFF"/><text text-anchor="middle" pointer-events="none" y="5" font-size="10px" fill="#FFFFFF" font-family="sans-serif"> PDSP</text></g><g class="node" transform="translate(-227.0313499991217,332.5439929368622)"><circle class="outline" cx="0" cy="0" r="25" fill="#F79767" stroke="#f36924" stroke-width="2px"/><text text-anchor="middle" pointer-events="none" font-family="sans-serif" dy="1.5625" font-size="25" fill="#FFFFFF"/><text text-anchor="middle" pointer-events="none" y="5" font-size="10px" fill="#FFFFFF" font-family="sans-serif"> MyCancerGenome</text></g><g class="node" transform="translate(404.2626051965755,213.55121004454682)"><circle class="outline" cx="0" cy="0" r="25" fill="#F79767" stroke="#f36924" stroke-width="2px"/><text text-anchor="middle" pointer-events="none" font-family="sans-serif" dy="1.5625" font-size="25" fill="#FFFFFF"/><text text-anchor="middle" pointer-events="none" y="5" font-size="10px" fill="#FFFFFF" font-family="sans-serif"> PDB</text></g><g class="node" transform="translate(277.5866097335927,353.02226299951377)"><circle class="outline" cx="0" cy="0" r="25" fill="#F79767" stroke="#f36924" stroke-width="2px"/><text text-anchor="middle" pointer-events="none" font-family="sans-serif" dy="1.5625" font-size="25" fill="#FFFFFF"/><text text-anchor="middle" pointer-events="none" y="5" font-size="10px" fill="#FFFFFF" font-family="sans-serif"> GLIDA</text></g><g class="node" transform="translate(-137.97610134937943,343.74000555023656)"><circle class="outline" cx="0" cy="0" r="25" fill="#F79767" stroke="#f36924" stroke-width="2px"/><text text-anchor="middle" pointer-events="none" font-family="sans-serif" dy="1.5625" font-size="25" fill="#FFFFFF"/><text text-anchor="middle" pointer-events="none" y="5" font-size="10px" fill="#FFFFFF" font-family="sans-serif"> TEND</text></g><g class="node" transform="translate(-225.1931244089082,147.88941669116022)"><circle class="outline" cx="0" cy="0" r="25" fill="#F79767" stroke="#f36924" stroke-width="2px"/><text text-anchor="middle" pointer-events="none" font-family="sans-serif" dy="1.5625" font-size="25" fill="#FFFFFF"/><text text-anchor="middle" pointer-events="none" y="5" font-size="10px" fill="#FFFFFF" font-family="sans-serif"> TALC</text></g><g class="node" transform="translate(63.24631840418597,103.1314780156313)"><circle class="outline" cx="0" cy="0" r="25" fill="#F79767" stroke="#f36924" stroke-width="2px"/><text text-anchor="middle" pointer-events="none" font-family="sans-serif" dy="1.5625" font-size="25" fill="#FFFFFF"/><text text-anchor="middle" pointer-events="none" y="5" font-size="10px" fill="#FFFFFF" font-family="sans-serif"> DC</text></g><g class="node" transform="translate(-77.80591191390334,153.6088342600744)"><circle class="outline" cx="0" cy="0" r="25" fill="#F79767" stroke="#f36924" stroke-width="2px"/><text text-anchor="middle" pointer-events="none" font-family="sans-serif" dy="1.5625" font-size="25" fill="#FFFFFF"/><text text-anchor="middle" pointer-events="none" y="5" font-size="10px" fill="#FFFFFF" font-family="sans-serif"> DsigDB</text></g><g class="node" transform="translate(151.23199674365674,83.47039873477752)"><circle class="outline" cx="0" cy="0" r="25" fill="#F79767" stroke="#f36924" stroke-width="2px"/><text text-anchor="middle" pointer-events="none" font-family="sans-serif" dy="1.5625" font-size="25" fill="#FFFFFF"/><text text-anchor="middle" pointer-events="none" y="5" font-size="10px" fill="#FFFFFF" font-family="sans-serif"> KEGGDrug</text></g><g class="node" transform="translate(291.3426324796823,-97.57852291704927)"><circle class="outline" cx="0" cy="0" r="25" fill="#57C7E3" stroke="#23b3d7" stroke-width="2px"/><text text-anchor="middle" pointer-events="none" font-family="sans-serif" dy="1.5625" font-size="25" fill="#FFFFFF"/><text text-anchor="middle" pointer-events="none" y="5" font-size="10px" fill="#FFFFFF" font-family="sans-serif"> HTS</text></g><g class="node" transform="translate(-38.322927109910154,-51.0873286472152)"><circle class="outline" cx="0" cy="0" r="25" fill="#57C7E3" stroke="#23b3d7" stroke-width="2px"/><text text-anchor="middle" pointer-events="none" font-family="sans-serif" dy="1.5625" font-size="25" fill="#FFFFFF"/><text text-anchor="middle" pointer-events="none" y="5" font-size="10px" fill="#FFFFFF" font-family="sans-serif"> Patents</text></g><g class="node" transform="translate(186.6022912615104,153.87225983823743)"><circle class="outline" cx="0" cy="0" r="25" fill="#57C7E3" stroke="#23b3d7" stroke-width="2px"/><text text-anchor="middle" pointer-events="none" font-family="sans-serif" dy="1.5625" font-size="25" fill="#FFFFFF"/><text text-anchor="middle" pointer-events="none" y="5" font-size="10px" fill="#FFFFFF" font-family="sans-serif"> PubMed</text></g><g class="node" transform="translate(-162.4960796582295,29.72093857995793)"><circle class="outline" cx="0" cy="0" r="25" fill="#57C7E3" stroke="#23b3d7" stroke-width="2px"/><text text-anchor="middle" pointer-events="none" font-family="sans-serif" dy="1.5625" font-size="25" fill="#FFFFFF"/><text text-anchor="middle" pointer-events="none" y="5" font-size="10px" fill="#FFFFFF" font-family="sans-serif"> Pharma</text></g><g class="node" transform="translate(-22.942457196867792,17.559148898098044)"><circle class="outline" cx="0" cy="0" r="25" fill="#57C7E3" stroke="#23b3d7" stroke-width="2px"/><text text-anchor="middle" pointer-events="none" font-family="sans-serif" dy="1.5625" font-size="25" fill="#FFFFFF"/><text text-anchor="middle" pointer-events="none" y="5" font-size="10px" fill="#FFFFFF" font-family="sans-serif"> FDA</text></g><g class="node" transform="translate(68.57435004752993,406.86064213992995)"><circle class="outline" cx="0" cy="0" r="25" fill="#F16667" stroke="#eb2728" stroke-width="2px"/><text text-anchor="middle" pointer-events="none" font-family="sans-serif" dy="1.5625" font-size="25" fill="#FFFFFF"/><text text-anchor="middle" pointer-events="none" y="5" font-size="10px" fill="#FFFFFF" font-family="sans-serif"> QUAGMIRE</text></g><g class="node" transform="translate(14.879806155766815,217.6155261357494)"><circle class="outline" cx="0" cy="0" r="25" fill="#F79767" stroke="#f36924" stroke-width="2px"/><text text-anchor="middle" pointer-events="none" font-family="sans-serif" dy="1.5625" font-size="25" fill="#FFFFFF"/><text text-anchor="middle" pointer-events="none" y="5" font-size="10px" fill="#FFFFFF" font-family="sans-serif"> DrugBank</text></g><g class="node" transform="translate(-156.70704844624657,143.97715197191957)"><circle class="outline" cx="0" cy="0" r="25" fill="#F79767" stroke="#f36924" stroke-width="2px"/><text text-anchor="middle" pointer-events="none" font-family="sans-serif" dy="1.5625" font-size="25" fill="#FFFFFF"/><text text-anchor="middle" pointer-events="none" y="5" font-size="10px" fill="#FFFFFF" font-family="sans-serif"> TTD</text></g><g class="node" transform="translate(270.1955676519553,157.03046163415215)"><circle class="outline" cx="0" cy="0" r="25" fill="#F79767" stroke="#f36924" stroke-width="2px"/><text text-anchor="middle" pointer-events="none" font-family="sans-serif" dy="1.5625" font-size="25" fill="#FFFFFF"/><text text-anchor="middle" pointer-events="none" y="5" font-size="10px" fill="#FFFFFF" font-family="sans-serif"> CTD</text></g><g class="node" transform="translate(327.60121488472055,261.0641120092283)"><circle class="outline" cx="0" cy="0" r="25" fill="#F79767" stroke="#f36924" stroke-width="2px"/><text text-anchor="middle" pointer-events="none" font-family="sans-serif" dy="1.5625" font-size="25" fill="#FFFFFF"/><text text-anchor="middle" pointer-events="none" y="5" font-size="10px" fill="#FFFFFF" font-family="sans-serif"> STITCH</text></g><g class="node" transform="translate(118.32312074262788,282.67301459785244)"><circle class="outline" cx="0" cy="0" r="25" fill="#F79767" stroke="#f36924" stroke-width="2px"/><text text-anchor="middle" pointer-events="none" font-family="sans-serif" dy="1.5625" font-size="25" fill="#FFFFFF"/><text text-anchor="middle" pointer-events="none" y="5" font-size="10px" fill="#FFFFFF" font-family="sans-serif"> T3DB</text></g><g class="node" transform="translate(178.6885401162067,-5.135687173253615)"><circle class="outline" cx="0" cy="0" r="25" fill="#F79767" stroke="#f36924" stroke-width="2px"/><text text-anchor="middle" pointer-events="none" font-family="sans-serif" dy="1.5625" font-size="25" fill="#FFFFFF"/><text text-anchor="middle" pointer-events="none" y="5" font-size="10px" fill="#FFFFFF" font-family="sans-serif"> ChEMBL</text></g><g class="node" transform="translate(-192.9287510813042,243.44455343452455)"><circle class="outline" cx="0" cy="0" r="25" fill="#F79767" stroke="#f36924" stroke-width="2px"/><text text-anchor="middle" pointer-events="none" font-family="sans-serif" dy="1.5625" font-size="25" fill="#FFFFFF"/><text text-anchor="middle" pointer-events="none" y="5" font-size="10px" fill="#FFFFFF" font-family="sans-serif"> DGIdb</text></g><g class="node" transform="translate(195.11919241697365,287.6393763305923)"><circle class="outline" cx="0" cy="0" r="25" fill="#F79767" stroke="#f36924" stroke-width="2px"/><text text-anchor="middle" pointer-events="none" font-family="sans-serif" dy="1.5625" font-size="25" fill="#FFFFFF"/><text text-anchor="middle" pointer-events="none" y="5" font-size="10px" fill="#FFFFFF" font-family="sans-serif"> GtoPdb</text></g><g class="node" transform="translate(324.85862113670544,28.181011033594565)"><circle class="outline" cx="0" cy="0" r="25" fill="#F79767" stroke="#f36924" stroke-width="2px"/><text text-anchor="middle" pointer-events="none" font-family="sans-serif" dy="1.5625" font-size="25" fill="#FFFFFF"/><text text-anchor="middle" pointer-events="none" y="5" font-size="10px" fill="#FFFFFF" font-family="sans-serif"> BindingDB</text></g></g></svg>